# xmcd
#
# Track frame offsets:
#	183
#	19198
#	37728
#	55825
#	74595
#	94120
#	112260
#	125528
#	144445
#	162830
#	180883
#	195995
#	217935
#
# Disc length: 3153 seconds
#
# Revision: 7
# Processed by: cddbd v1.5.2PL0 Copyright (c) Steve Scherf et al.
# Submitted via: MusicWizard 7.2.1
#
DISCID=ac0c4f0d
DTITLE=Udo Jürgens - Café Größenwahn
DYEAR=1994
DGENRE=Schlager
TTITLE0=Was dich nicht umbringt, gibt dir neue Kraft zum Leben
TTITLE1=Leben in Blue Jeans
TTITLE2=Du und ich
TTITLE3=Keine war so wie du
TTITLE4=Madonna in der Hölle
TTITLE5=Stille Nacht
TTITLE6=Kurze Unterbrechung
TTITLE7=Café Grössenwahn
TTITLE8=Vater und Sohn
TTITLE9=Wasser unter den Brücken
TTITLE10=Näher zu dir
TTITLE11=Engel der Melancholie
TTITLE12=und es gibt dich
EXTD=YEAR: 1993
EXTT0=
EXTT1=
EXTT2=
EXTT3=
EXTT4=
EXTT5=
EXTT6=
EXTT7=
EXTT8=
EXTT9=
EXTT10=
EXTT11=
EXTT12=
PLAYORDER=
